<?xml version="1.0" standalone="no"?>
<!DOCTYPE svg PUBLIC "-//W3C//DTD SVG 1.1//EN" "http://www.w3.org/Graphics/SVG/1.1/DTD/svg11.dtd" >
<svg xmlns="http://www.w3.org/2000/svg">
<metadata></metadata>
<defs>
<font id="franklingothicef-demiregular" horiz-adv-x="1024" >
<font-face units-per-em="2048" ascent="1638" descent="-410" />
<missing-glyph horiz-adv-x="512" />
<glyph horiz-adv-x="2048" />
<glyph horiz-adv-x="2048" />
<glyph horiz-adv-x="682" />
<glyph d="M141 1407q31 -59 49.5 -86t42.5 -49q96 -90 279 -90q143 0 231 53t140 172h-178q-41 -41 -86.5 -58.5t-100.5 -17.5q-119 0 -199 76h-178z" />
<glyph d="M397 1294q0 -47 34 -79.5t81 -32.5t81 33.5t34 80.5t-34 80t-81 33t-81 -34t-34 -81z" />
<glyph d="M334 1298q0 -39 14 -72.5t38 -59t55.5 -40t68.5 -14.5q76 0 128 54.5t52 131.5q0 39 -14 73t-38 59.5t-56.5 40t-69.5 14.5t-69.5 -14.5t-56.5 -40t-38 -59.5t-14 -73zM442 1296q0 31 20.5 52.5t49.5 21.5t49.5 -21.5t20.5 -50.5q0 -31 -21.5 -51t-50.5 -20t-48.5 20.5 t-19.5 48.5z" />
<glyph unicode="&#xa;" d="M121 1235l63 -102l344 184l-90 149zM496 1235l63 -102l344 184l-90 149z" />
<glyph d="M334 -131q0 -59 49 -97t129 -38q53 0 98 12t107 45l-31 82q-41 -23 -67.5 -32t-55.5 -9q-41 0 -64.5 20.5t-23.5 53.5q0 23 10.5 44t32.5 50h-125q-35 -41 -47 -69.5t-12 -61.5z" />
<glyph d="M133 1446l383 -299l375 299h-205l-170 -113l-170 113h-213z" />
<glyph unicode="&#xd;" />
<glyph horiz-adv-x="294" d="M-328 0h193l758 1366h-193z" />
<glyph horiz-adv-x="1150" d="M27 778h116v-778h293v778h180v232h-180v39q0 78 22.5 106.5t82.5 28.5h37q16 0 63 -4v229q-49 6 -76.5 8t-60.5 2q-182 0 -281 -92q-25 -23 -39 -47.5t-23 -59t-13.5 -85t-4.5 -125.5h-116v-232zM729 0h299v1010h-299v-1010zM729 1094h299v299h-299v-299z" />
<glyph horiz-adv-x="1148" d="M27 778h116v-778h293v778h180v232h-180v39q0 78 22.5 106.5t82.5 28.5h37q16 0 63 -4v229q-49 6 -76.5 8t-60.5 2q-182 0 -281 -92q-25 -23 -39 -47.5t-23 -59t-13.5 -85t-4.5 -125.5h-116v-232zM729 0h297v1366h-297v-1366z" />
<glyph unicode=" "  horiz-adv-x="512" />
<glyph unicode="&#x09;" horiz-adv-x="512" />
<glyph unicode="&#xa0;" horiz-adv-x="512" />
<glyph unicode="!" horiz-adv-x="602" d="M109 1366l100 -958h184l99 958h-383zM143 0h316v315h-316v-315z" />
<glyph unicode="&#x22;" horiz-adv-x="845" d="M84 1366l49 -549h195l51 549h-295zM467 1366l49 -549h197l49 549h-295z" />
<glyph unicode="#" horiz-adv-x="1228" d="M12 373h209l-61 -373h270l59 373h175l-62 -373h275l59 373h209l35 239h-207l26 170h205l37 238h-205l56 346h-273l-55 -346h-174l57 346h-270l-55 -346h-207l-37 -238h207l-29 -170h-207zM526 612l27 170h174l-27 -170h-174z" />
<glyph unicode="$" horiz-adv-x="1193" d="M45 387q14 -49 27.5 -84t31 -61.5t40 -49t53.5 -47.5q117 -90 280 -104l6 -2v-189h162v189q100 10 181 45t138.5 89t88 126t30.5 158q0 158 -116 262q-29 27 -59.5 46t-73.5 35.5t-102.5 32t-145.5 31.5q-102 20 -142.5 49t-40.5 82q0 57 44.5 86t127.5 29 q90 0 138.5 -33t83.5 -116l252 83q-16 41 -29.5 70t-30 51.5t-36 42t-46.5 39.5q-53 41 -112.5 61.5t-149.5 30.5v158h-162v-160h-6q-82 -12 -149.5 -46t-115.5 -86t-74.5 -119.5t-26.5 -145.5q0 -96 39.5 -171t115.5 -120q53 -33 119 -55.5t176 -44.5q63 -12 106.5 -25.5 t69 -30t35.5 -38t10 -49.5q0 -61 -55 -97.5t-149 -36.5q-106 0 -169 43t-90 136z" />
<glyph unicode="%" horiz-adv-x="1413" d="M57 1024q0 -80 20.5 -145.5t57.5 -111.5t89 -70.5t116 -24.5q129 0 207 96t78 258q0 80 -20.5 144.5t-57.5 110.5t-90.5 70.5t-116.5 24.5q-129 0 -206 -96t-77 -256zM242 1026q0 127 21.5 176t78.5 49q53 0 75.5 -52t22.5 -181q0 -117 -23.5 -168t-76.5 -51t-75.5 51 t-22.5 176zM250 0h151l756 1366h-151zM788 340q0 -160 76 -255t205 -95q131 0 208 96t77 256t-77 255t-206 95t-206 -95t-77 -257zM973 342q0 127 21.5 177t76.5 50t77.5 -52t22.5 -181q0 -119 -23.5 -169t-76.5 -50q-55 0 -76.5 50t-21.5 175z" />
<glyph unicode="&#x26;" horiz-adv-x="1470" d="M57 403q0 -90 41 -176t109 -143q131 -111 368 -111q109 0 185 21q35 8 62.5 18.5t55 24.5t57.5 34.5t69 49.5q35 -37 66.5 -61.5t66 -40t73.5 -21.5t88 -6q37 0 64 4t74 14v244q-10 -2 -17.5 -3t-13.5 -1q-14 -2 -27.5 -3t-23.5 -1q-45 0 -73 13t-69 52q20 25 36 44.5 t29 38t26.5 39t29.5 48.5q20 39 35.5 68t27 58.5t20.5 61t20 76.5l-283 39q-20 -94 -48 -155.5t-73 -114.5l-192 209q137 59 196.5 137t59.5 195q0 156 -109.5 247t-296.5 91q-96 0 -173 -22.5t-132 -64.5t-85 -101.5t-30 -131.5q0 -35 5.5 -62.5t18.5 -58t37.5 -66.5 t63.5 -87q-41 -16 -68.5 -28.5t-49 -25t-41 -24.5t-41.5 -31q-66 -53 -102 -127t-36 -160zM399 426q0 72 36 114t124 76l279 -309q-57 -43 -110.5 -62.5t-115.5 -19.5q-92 0 -152.5 57.5t-60.5 143.5zM571 1083q0 45 36 74t93 29q66 0 107 -38t41 -97q0 -53 -34 -91 t-112 -69l-57 57q-41 41 -57.5 72t-16.5 63z" />
<glyph unicode="'" horiz-adv-x="460" d="M84 1366l49 -549h195l51 549h-295z" />
<glyph unicode="(" horiz-adv-x="643" d="M66 512q0 -143 27.5 -277.5t86.5 -273.5q18 -47 35.5 -82t36 -68.5t42 -69.5t56.5 -83h219q-31 51 -52 90t-37.5 78t-32 82t-33.5 102q-41 133 -58.5 248t-17.5 242q0 133 19.5 263t56.5 251q14 49 29.5 89t33 79t41 83t55.5 101h-217q-37 -49 -62.5 -88t-46 -74 t-39 -73.5t-38.5 -88.5q-53 -131 -78.5 -262t-25.5 -268z" />
<glyph unicode=")" horiz-adv-x="643" d="M68 -342h219q37 49 62.5 88t46 74t38 73.5t37.5 88.5q106 258 107 530q0 143 -28 277.5t-87 273.5q-20 45 -36.5 81t-35 69.5t-43 69.5t-57.5 83h-217q31 -51 52 -90t37.5 -78t31 -82t32.5 -102q41 -133 58.5 -248t17.5 -244q0 -133 -19.5 -262t-56.5 -250 q-16 -49 -29.5 -89t-32 -79t-42 -83t-55.5 -101z" />
<glyph unicode="*" horiz-adv-x="1050" d="M123 1014l291 -82l-187 -238l131 -94l166 250l170 -250l129 94l-186 238l291 84l-49 151l-285 -102l10 301h-160l13 -301l-285 102z" />
<glyph unicode="+" d="M68 573h311v-313h266v313h311v246h-311v314h-266v-314h-311v-246z" />
<glyph unicode="," horiz-adv-x="540" d="M115 0h155l-155 -319h110l201 348v280h-311v-309z" />
<glyph unicode="-" horiz-adv-x="477" d="M0 412h477v217h-477v-217z" />
<glyph unicode="." horiz-adv-x="540" d="M117 0h309v309h-309v-309z" />
<glyph unicode="/" horiz-adv-x="1095" d="M-133 -342h201l974 1708h-200z" />
<glyph unicode="0" horiz-adv-x="1193" d="M63 682q0 -160 38 -290t106.5 -221t167 -141t219.5 -50q123 0 221 50t169 142t108.5 222t37.5 292q0 158 -37.5 287t-107.5 221t-169 142t-220 50t-219 -50t-168 -142t-108 -222t-38 -290zM395 686q0 117 6.5 186.5t20.5 128.5q41 156 176 156q66 0 112 -40t62 -116 q12 -59 19.5 -144t7.5 -185q0 -244 -46 -350.5t-155 -106.5q-55 0 -94 24.5t-63.5 80t-35 145.5t-10.5 221z" />
<glyph unicode="1" horiz-adv-x="1193" d="M88 0h1104v250h-377v1136h-231q-16 -25 -28.5 -41t-26 -29t-30 -26.5t-40.5 -29.5q-37 -25 -72 -45.5t-74 -38t-85 -34t-107 -34.5v-281q80 33 156 73.5t178 103.5l47 26v-780h-414v-250z" />
<glyph unicode="2" horiz-adv-x="1193" d="M61 0h1024l25 272h-653l75 45q160 98 266.5 178t171 154t92.5 147.5t28 157.5q0 96 -36 176t-100.5 136.5t-154.5 88t-201 31.5q-440 0 -537 -452l283 -62q31 262 231 263q86 0 137.5 -50.5t51.5 -134.5q0 -104 -102 -211q-31 -31 -75 -70.5t-92.5 -80.5t-97.5 -79 t-88 -65l-166 -118l-82 -62v-264z" />
<glyph unicode="3" horiz-adv-x="1193" d="M33 395q10 -53 22.5 -91t28.5 -69.5t38.5 -59.5t57.5 -58q78 -72 171 -104.5t227 -32.5q119 0 216 28.5t165.5 82.5t105.5 130t37 170q0 145 -101 240q-37 33 -71.5 49t-102.5 35q236 82 236 303q0 82 -36 149.5t-100.5 116.5t-153.5 75.5t-198 26.5q-231 0 -376 -143 q-29 -27 -47.5 -49.5t-33 -47t-24.5 -54t-20 -70.5l282 -47q27 94 75 135t134 41q80 0 132.5 -47t52.5 -119q0 -78 -54.5 -120t-156.5 -42h-146v-237h127q141 0 199.5 -39t58.5 -137q0 -84 -57 -134.5t-152 -50.5q-102 0 -161.5 51.5t-85.5 161.5z" />
<glyph unicode="4" horiz-adv-x="1193" d="M43 315h598v-315h317v315h193v240h-193v831h-362l-553 -831v-240zM285 555l374 582q0 -18 -1 -31.5t-1 -24.5q-2 -27 -2 -43v-22v-461h-370z" />
<glyph unicode="5" horiz-adv-x="1193" d="M74 367q12 -51 25.5 -88t30.5 -66t40 -54.5t55 -52.5q145 -127 385 -126q121 0 219.5 33.5t167 96t106.5 152.5t38 201q0 94 -33 174t-92.5 138.5t-140 91t-177.5 32.5q-94 0 -159.5 -26.5t-130.5 -90.5l22 303h596l35 281h-860l-54 -774l261 -43q70 104 196 104 q45 0 84 -16t67.5 -45t46 -68t17.5 -84q0 -92 -61.5 -150.5t-159.5 -58.5q-180 0 -225 181z" />
<glyph unicode="6" horiz-adv-x="1193" d="M76 674q0 -162 38 -291t110.5 -218t176 -137t232.5 -48q109 0 200 33.5t157.5 95t104.5 145.5t38 184q0 88 -33 165t-91.5 133.5t-137 88t-171.5 31.5q-211 0 -307 -156v41q0 201 61.5 308.5t178.5 107.5q86 0 134 -49t71 -160l274 72q-10 43 -19.5 73.5t-22.5 55.5 t-30.5 48t-44.5 50q-72 72 -156.5 105.5t-201.5 33.5q-121 0 -208 -33.5t-161 -111.5q-92 -96 -142 -242.5t-50 -324.5zM410 420q0 45 16 85t44 69.5t65.5 46t80.5 16.5q88 0 144.5 -59.5t56.5 -151.5q0 -98 -55.5 -158.5t-147.5 -60.5q-90 0 -147 60.5t-57 152.5z" />
<glyph unicode="7" horiz-adv-x="1193" d="M113 1083h692q-45 -45 -77 -78.5t-57.5 -69.5t-51 -76t-58.5 -97q-92 -164 -145 -322q-20 -61 -33.5 -109t-22 -97.5t-12.5 -104.5t-4 -129h365q-2 35 -2 59v41q0 51 6 116t17 132.5t25.5 130t30.5 111.5q18 53 49 118.5t72 143.5q27 51 47.5 86t41 63.5t43 56t53.5 64.5 v244h-955z" />
<glyph unicode="8" horiz-adv-x="1193" d="M55 369q0 -90 36 -162t103.5 -123t163 -77.5t215.5 -26.5q131 0 235.5 29.5t178.5 83.5t113 132t39 176q0 121 -58.5 198t-193.5 138q109 51 158 120t49 169q0 80 -36 146.5t-100.5 113.5t-153.5 73.5t-198 26.5q-113 0 -206 -29.5t-158.5 -82.5t-102.5 -127t-37 -164 q0 -102 46.5 -175t152.5 -136q-131 -51 -188.5 -122t-57.5 -181zM344 381q0 72 39 116t131 72l61 -20q74 -25 123.5 -47.5t79 -46t40.5 -50t11 -59.5q0 -72 -62 -109.5t-173 -37.5q-119 0 -184.5 48t-65.5 134zM408 1032q0 70 50 109t136 39q102 0 160.5 -48.5t58.5 -132.5 q0 -66 -32.5 -107.5t-104.5 -64.5q-82 27 -134.5 49.5t-82 46t-40.5 49t-11 60.5z" />
<glyph unicode="9" horiz-adv-x="1193" d="M70 932q0 -92 30.5 -169t87 -132.5t134 -86t170.5 -30.5q98 0 166.5 32t138.5 109l-4 -59q-2 -57 -6.5 -99t-10.5 -74t-15 -57.5t-24 -50.5q-27 -45 -74 -70.5t-100 -25.5q-70 0 -113.5 34t-68.5 109l-281 -51q49 -170 159 -250.5t290 -80.5q63 0 124.5 12t110.5 35 q74 33 134.5 97t103.5 152.5t65.5 197t22.5 228.5q0 328 -140.5 506t-400.5 178q-113 0 -205 -32.5t-157.5 -92t-101 -143.5t-35.5 -186zM373 950q0 43 15 82t43 66.5t64.5 44t79.5 16.5t80 -16.5t65 -44t44 -65.5t16 -81t-16 -80.5t-44 -65.5t-67 -44.5t-82 -16.5 q-86 0 -142 58.5t-56 146.5z" />
<glyph unicode=":" horiz-adv-x="540" d="M117 2h309v307h-309v-307zM117 709h309v301h-309v-301z" />
<glyph unicode=";" horiz-adv-x="540" d="M115 -4h155l-155 -320h110l201 351v278h-311v-309zM115 709h311v301h-311v-301z" />
<glyph unicode="&#x3c;" d="M68 573l888 -454l-2 262l-606 303l608 301v262l-888 -450v-224z" />
<glyph unicode="=" d="M68 403h888v232h-888v-232zM68 758h888v231h-888v-231z" />
<glyph unicode="&#x3e;" d="M68 119l888 452v224l-888 452l2 -262l606 -301l-608 -301v-264z" />
<glyph unicode="?" horiz-adv-x="1044" d="M27 932l274 -39q16 135 61.5 192.5t137.5 57.5q72 0 117 -44t45 -116q0 -59 -25 -99t-90 -87q-61 -47 -97 -80t-54.5 -69t-22.5 -86t-4 -130v-43h256v21q0 41 4 67.5t18.5 48t42 44t74.5 53.5q223 147 223 364q0 88 -34.5 162t-97 127t-148.5 84t-187 31 q-240 0 -381 -172q-25 -31 -42 -58.5t-29.5 -60.5t-22.5 -73t-18 -95zM362 0h314v301h-314v-301z" />
<glyph unicode="@" horiz-adv-x="1591" d="M66 651q0 -164 59 -303t164.5 -242.5t248 -162t308.5 -58.5q182 0 350 76q63 29 110.5 59.5t84 70.5t68.5 93.5t65 128.5h-138q-23 -33 -41 -56.5t-32 -37.5q-78 -84 -201 -132t-256 -48t-248.5 47t-200.5 128t-133.5 192.5t-48.5 240.5q0 125 49.5 237.5t132 196.5 t194.5 133.5t237 49.5q96 0 193 -33t175 -92q162 -123 162 -328q0 -72 -20.5 -131t-63.5 -121q-51 -68 -110.5 -107.5t-110.5 -39.5q-49 0 -49 37q0 27 20 79l195 504h-232l-12 -31q-39 35 -71.5 49.5t-75.5 14.5q-84 0 -163 -47t-140.5 -125t-98.5 -178.5t-37 -208.5 q0 -117 59.5 -185.5t162.5 -68.5q59 0 110 22.5t123 81.5q6 -109 143 -108q106 0 203.5 45t169.5 122t115 180t43 218q0 129 -52.5 238.5t-143.5 190.5t-216 127t-270 46q-164 0 -306.5 -59.5t-248 -161.5t-165.5 -242.5t-60 -300.5zM639 457q0 41 23.5 115.5t60.5 146.5 q86 182 151 182q37 0 37 -35v-8q-6 -47 -30.5 -116.5t-61.5 -147.5q-27 -53 -46 -89t-35.5 -56.5t-30 -28.5t-27.5 -8q-41 0 -41 45z" />
<glyph unicode="A" horiz-adv-x="1245" d="M0 0h281l86 281h440l84 -281h344l-428 1366h-371zM442 532l146 480l145 -480h-291z" />
<glyph unicode="B" horiz-adv-x="1333" d="M137 0h635q129 0 216 24.5t151 77.5q59 51 93 123t34 150q0 72 -29 137.5t-82 112.5q-39 33 -73.5 50t-100.5 34q127 41 186.5 113.5t59.5 189.5q0 164 -125 266q-31 25 -63.5 41t-71.5 27.5t-86 15.5t-109 4h-635v-1366zM455 252v330h260q104 0 158.5 -42t54.5 -120 q0 -86 -54.5 -127t-173.5 -41h-245zM455 823v301h219q127 0 176 -31.5t49 -115.5q0 -78 -49 -116t-154 -38h-241z" />
<glyph unicode="C" horiz-adv-x="1286" d="M72 684q0 -160 43 -290t122.5 -222t192.5 -142t252 -50q147 0 263 55t192 160q23 33 39 60.5t27 60t19.5 71.5t16.5 92l-311 19q-43 -256 -242 -256q-135 0 -196.5 102t-61.5 326q0 458 251 458h1q109 0 162 -70.5t61 -221.5l336 22q-10 63 -19.5 109.5t-21.5 83 t-30.5 69.5t-45.5 72q-140 194 -431 194h-3q-141 0 -255 -49t-193.5 -141t-123.5 -222t-44 -290z" />
<glyph unicode="D" horiz-adv-x="1331" d="M137 0h473q145 0 265 49t205 139.5t132.5 217t47.5 280.5q0 145 -45.5 268t-131.5 222q-47 53 -98 88.5t-113.5 58.5t-139.5 33t-175 10h-420v-1366zM453 256v858h135q86 0 143 -25.5t103 -82.5q47 -63 71.5 -143.5t24.5 -172.5t-25.5 -175t-75.5 -146q-43 -59 -101 -86 t-142 -27h-133z" />
<glyph unicode="E" horiz-adv-x="1167" d="M137 0h975v268h-651v299h512v258h-512v279h651v262h-975v-1366z" />
<glyph unicode="F" horiz-adv-x="1134" d="M137 0h332v535h504v256h-504v307h637v268h-969v-1366z" />
<glyph unicode="G" horiz-adv-x="1316" d="M72 666q0 -158 39 -285t112.5 -216t178 -137t233.5 -48q113 0 205 40q45 20 79.5 48t88.5 90q10 -27 16 -45.5t11 -35t9.5 -33.5t10.5 -44h145v729h-561v-254h258q0 -111 -59.5 -173t-163.5 -62q-135 0 -206 110.5t-71 321.5q0 223 67.5 339.5t197.5 116.5 q197 0 235 -251l303 41q-37 225 -175 346.5t-357 121.5q-137 0 -248 -51t-187.5 -144t-118.5 -226.5t-42 -298.5z" />
<glyph unicode="H" horiz-adv-x="1331" d="M137 0h312v563h430v-563h315v1366h-315v-535h-430v535h-312v-1366z" />
<glyph unicode="I" horiz-adv-x="593" d="M137 0h320v1366h-320v-1366z" />
<glyph unicode="J" horiz-adv-x="780" d="M14 0q37 -6 64.5 -10t51.5 -6t47.5 -3t51.5 -1q223 0 325.5 98t102.5 313v975h-319v-934q0 -100 -38 -141t-130 -41h-33q-14 0 -30.5 2t-38 4t-54.5 8v-264z" />
<glyph unicode="K" horiz-adv-x="1288" d="M137 0h312v313l190 279l270 -592h355l-410 879l328 487h-305l-428 -643v643h-312v-1366z" />
<glyph unicode="L" horiz-adv-x="1030" d="M137 0h867v270h-543v1096h-324v-1366z" />
<glyph unicode="M" horiz-adv-x="1761" d="M137 0h269v1114l335 -1114h220l342 1114v-1114h321v1366h-498l-252 -817l-239 817h-498v-1366z" />
<glyph unicode="N" horiz-adv-x="1323" d="M137 0h248v817q0 6 -1 20.5t-3 39.5q0 8 -1 18t-1 27l536 -922h273v1366h-248v-715q0 -20 1 -38.5t5 -53.5l-465 807h-344v-1366z" />
<glyph unicode="O" horiz-adv-x="1308" d="M72 688q0 -160 42 -291t117.5 -223t182 -143t235.5 -51q139 0 251 50t185 148q72 92 112 227.5t40 276.5t-41 275.5t-113 230.5q-153 198 -418 198h-3q-135 0 -244 -49t-185.5 -140t-118.5 -220t-42 -289zM422 863.5q16 85.5 45 144.5q57 116 190 116h2q244 0 244 -442 q0 -440 -246 -440q-251 0 -251 435q0 101 16 186.5z" />
<glyph unicode="P" horiz-adv-x="1234" d="M137 0h324v506h225q74 0 126 4t94 15.5t75 29.5t68 47q70 59 108.5 148.5t38.5 193.5q0 193 -137 313q-37 31 -73 52.5t-80 34t-100 17.5t-132 5h-537v-1366zM455 754v362h202q104 0 160.5 -46t56.5 -134q0 -86 -56 -134t-159 -48h-204z" />
<glyph unicode="Q" horiz-adv-x="1316" d="M72 682q0 -154 42 -282t116.5 -220t179 -143t229.5 -51h27q12 0 26.5 1t31.5 2t44 5q8 -76 29.5 -129t58.5 -86t93.5 -47.5t133.5 -14.5q33 0 55.5 2t59.5 13v241q-47 -6 -73.5 -8t-47.5 -2q-63 0 -91 24.5t-28 80.5q29 18 50.5 33.5t39 32t34 39l38.5 52.5 q66 96 95.5 204t29.5 243q0 164 -42 296t-118.5 225t-185 143t-244.5 50q-276 0 -426 -198q-78 -100 -117.5 -229.5t-39.5 -276.5zM410 682q-1 442 249 442t250 -448q0 -436 -250 -436t-249 442z" />
<glyph unicode="R" horiz-adv-x="1345" d="M137 0h322v541h229l209 -541h354l-252 602q49 23 78 41q72 47 115 132t43 181q0 92 -38 177.5t-103 138.5q-33 27 -68 44t-77 28.5t-93 16.5t-119 5h-600v-1366zM459 774v348h188q143 0 200.5 -37.5t57.5 -132.5q0 -96 -57 -137t-193 -41h-196z" />
<glyph unicode="S" horiz-adv-x="1189" d="M0 358q14 -53 29.5 -90t34 -66.5t42 -54t58.5 -51.5q149 -116 387 -116h4q223 0 363 88q92 59 145 157.5t53 206.5q0 82 -31.5 154.5t-93.5 128.5q-31 29 -64.5 49t-79.5 37.5t-109.5 34t-155.5 34.5q-111 23 -154 53.5t-43 88.5q0 125 186 125q96 0 148.5 -36t89.5 -126 l270 90q-16 43 -31.5 73.5t-32 55.5t-37.5 45t-50 43q-135 104 -361 104q-111 0 -203 -31.5t-156.5 -88t-100 -136t-35.5 -178.5q0 -104 42 -184t124 -129q57 -35 128.5 -58.5t188.5 -48.5q70 -14 116 -28.5t72.5 -31.5t38 -40.5t11.5 -54.5q0 -66 -58.5 -105t-161.5 -39 q-117 0 -183 46.5t-95 146.5z" />
<glyph unicode="T" horiz-adv-x="1001" d="M0 1094h340v-1094h324v1094h337v272h-1001v-272z" />
<glyph unicode="U" horiz-adv-x="1331" d="M123 514q0 -152 27.5 -242t95.5 -157q135 -135 430 -135q262 0 409 126q37 31 61.5 67t39 83t20.5 109.5t6 148.5v852h-272v-852q0 -80 -12.5 -133t-40 -85t-73.5 -46t-114 -14q-129 0 -180 61t-51 217v852h-346v-852z" />
<glyph unicode="V" horiz-adv-x="1136" d="M-14 1366l409 -1366h344l412 1366h-268l-283 -977l-274 977h-340z" />
<glyph unicode="W" horiz-adv-x="1787" d="M14 1366l351 -1366h311l198 825q6 23 9.5 37.5t9.5 40.5l225 -903h314l344 1366h-265l-192 -834l-10 -45l-11 -41l-231 920h-295l-223 -920q-4 14 -6 24.5t-4 16.5q-10 41 -11 45l-188 834h-326z" />
<glyph unicode="X" horiz-adv-x="1228" d="M4 0h303l275 496l272 -496h371l-422 731l373 635h-299l-232 -416l-221 416h-373l373 -641z" />
<glyph unicode="Y" horiz-adv-x="1069" d="M-55 1366l430 -791v-575h319v575l430 791h-286l-260 -520l-261 520h-372z" />
<glyph unicode="Z" horiz-adv-x="1183" d="M41 0h1102v260h-713l690 870v236h-1032v-258h641l-688 -877v-231z" />
<glyph unicode="[" horiz-adv-x="643" d="M129 -342h430v125h-197v1454h197v129h-430v-1708z" />
<glyph unicode="\" d="M55 1536l621 -1706h260l-621 1706h-260z" />
<glyph unicode="]" horiz-adv-x="643" d="M82 -213v-129h430v1708h-430v-125h199v-1454h-199z" />
<glyph unicode="^" d="M10 684h277l225 477l225 -477h279l-330 690h-348z" />
<glyph unicode="_" d="M0 -94v-240h1024v240h-1024z" />
<glyph unicode="`" d="M262 1292l451 -159l49 116l-438 215z" />
<glyph unicode="a" horiz-adv-x="1110" d="M61 262q0 -129 86 -205.5t232 -76.5q55 0 98 9t81 29.5t73 54t71 85.5v-27v-35q0 -14 1.5 -27.5t4.5 -29.5t7 -39h293q-12 41 -16.5 63.5t-4.5 51.5v73v459q0 68 -3 113t-13 77.5t-28.5 55t-47.5 47.5q-53 43 -138 66.5t-190 23.5q-225 0 -358 -102q-51 -37 -75.5 -82 t-41.5 -131l275 -25q10 72 54 110t120 38q147 0 147 -148v-59q-74 -6 -120 -10.5t-77.5 -8.5t-59.5 -9t-66 -13q-145 -31 -224.5 -116t-79.5 -212zM371 295q0 41 16 71.5t54 53t98.5 38t148.5 25.5v-90q0 -98 -54 -163.5t-134 -65.5q-57 0 -93 36t-36 95z" />
<glyph unicode="b" horiz-adv-x="1114" d="M123 0h158q6 16 9 28.5t7 20.5q6 23 11 37t10.5 24.5t11.5 20.5t16 25q33 -53 62.5 -87t63.5 -53.5t75 -27.5t94 -8q193 0 299.5 140t106.5 390q0 119 -27 215t-76 163.5t-118.5 104.5t-155.5 37q-88 0 -144.5 -32.5t-105.5 -114.5v483h-297v-1366zM420 399v195 q0 111 42 174t118 63q88 0 124.5 -74.5t36.5 -252.5q0 -164 -41 -242t-127 -78q-72 0 -112.5 57.5t-40.5 157.5z" />
<glyph unicode="c" horiz-adv-x="1048" d="M66 500q0 -119 34.5 -215.5t97 -164t151.5 -104t200 -36.5q248 0 377 172q20 27 33.5 49t22.5 47.5t16.5 56.5t13.5 74l-279 16q-27 -174 -166 -174q-92 0 -131 66.5t-39 228.5q0 150 43 220.5t135 70.5q72 0 110 -43t48 -137l279 14q-6 45 -13.5 79t-18.5 61.5t-28.5 53 t-44.5 54.5q-127 141 -342 141q-113 0 -205 -38t-157.5 -107.5t-101 -168t-35.5 -216.5z" />
<glyph unicode="d" horiz-adv-x="1107" d="M68 494q0 -242 95 -378t265 -136q94 0 155.5 39.5t123.5 138.5v-158h278v1366h-293v-461q-53 72 -107.5 98.5t-140.5 26.5q-182 0 -279 -138t-97 -398zM377 494q0 331 167 331h1q147 0 147 -237v-191q0 -92 -42.5 -149.5t-114.5 -57.5q-158 0 -158 304z" />
<glyph unicode="e" horiz-adv-x="1095" d="M66 496q0 -117 35.5 -212.5t101 -163t157 -104t203.5 -36.5q111 0 195 32.5t149 104.5q20 23 37 43t30 44.5t24.5 54.5t25.5 71l-270 20q-31 -160 -181 -160q-88 0 -141 59.5t-53 158.5q0 10 1 21t1 26h649q-2 70 -6 121t-13.5 91t-23.5 74.5t-39 75.5 q-57 98 -162.5 155.5t-232.5 57.5q-109 0 -198 -39t-153.5 -109.5t-100 -169t-35.5 -216.5zM381 629q20 211 186 211q82 0 121 -49.5t49 -161.5h-356z" />
<glyph unicode="f" horiz-adv-x="655" d="M27 778h116v-778h293v778h180v232h-180v39q0 78 22.5 106.5t82.5 28.5h37q16 0 63 -4v229q-49 6 -76.5 8t-60.5 2q-182 0 -281 -92q-25 -23 -39 -47.5t-23 -59t-13.5 -85t-4.5 -125.5h-116v-232z" />
<glyph unicode="g" horiz-adv-x="1132" d="M20 -121q0 -59 37 -108.5t101 -73.5q70 -29 160 -41t231 -12q156 0 255 20.5t181 67.5q66 39 103.5 104.5t37.5 138.5q0 86 -47 148.5t-129 87.5q-41 10 -84 17.5t-90 11.5q-20 0 -64 2t-114 6q-82 4 -131 9t-75.5 15.5t-35 26.5t-8.5 43t11.5 43t39.5 33q25 -4 44.5 -7 t38 -5.5t36.5 -2.5h47q213 0 333 83t120 231q0 59 -15.5 98t-64.5 94q18 86 117 86q18 0 33.5 -1t44.5 -7v189q-29 6 -43.5 7t-40.5 1q-57 0 -96.5 -9.5t-66 -32t-42 -60.5t-23.5 -95q-43 14 -74.5 22.5t-61.5 12.5t-59.5 6t-68.5 2q-109 0 -195 -22.5t-146 -63.5t-93 -99.5 t-33 -129.5q0 -88 43 -147.5t135 -100.5q-115 -49 -158.5 -98.5t-43.5 -126.5q0 -59 29.5 -101.5t99.5 -79.5q-174 -49 -175 -182zM281 -76q0 18 10 39q14 20 37 35q16 8 18 8l41 -2q16 -2 45 -2t70 -2q111 -2 179.5 -5t105 -12.5t49 -24.5t12.5 -40q0 -51 -64.5 -72.5 t-212.5 -21.5q-160 0 -225 22.5t-65 77.5zM389 715q0 74 44 114.5t122 40.5t124 -42t46 -109q0 -70 -47 -112t-125 -42q-76 0 -120 40t-44 110z" />
<glyph unicode="h" horiz-adv-x="1116" d="M123 0h289v569q0 227 163 228q35 0 58.5 -10.5t37 -36t18.5 -69.5t5 -112v-569h299v668q0 53 -3 93t-11 70.5t-21.5 54t-31.5 46.5q-41 47 -104.5 72.5t-135.5 25.5q-193 0 -274 -158v494h-289v-1366z" />
<glyph unicode="i" horiz-adv-x="544" d="M123 0h299v1010h-299v-1010zM123 1094h299v299h-299v-299z" />
<glyph unicode="j" horiz-adv-x="550" d="M-61 -115v-233q59 -10 94 -13.5t69 -3.5q133 0 215 58q35 23 56.5 48.5t34 64t16.5 98t4 151.5v955h-305v-955q0 -98 -25.5 -136t-91.5 -38q-12 0 -28.5 1t-38.5 3zM123 1092h305v301h-305v-301z" />
<glyph unicode="k" horiz-adv-x="1112" d="M123 0h280v258l175 201l213 -459h327l-327 668l288 342h-288l-295 -346q-10 -10 -50 -62q-12 -18 -43 -55v819h-280v-1366z" />
<glyph unicode="l" horiz-adv-x="542" d="M123 0h297v1366h-297v-1366z" />
<glyph unicode="m" horiz-adv-x="1687" d="M123 0h293v559q0 131 32.5 183.5t116.5 52.5q39 0 64.5 -10.5t40 -36t19.5 -71.5t5 -118v-559h293v559q0 129 34 182.5t116 53.5q43 0 67.5 -8.5t38.5 -34t18.5 -71.5t4.5 -122v-559h299v655q0 66 -3 111t-11.5 76.5t-24 56.5t-37.5 47q-39 41 -100.5 62.5t-131.5 21.5 q-106 0 -176.5 -41t-117.5 -133q-49 94 -113 134t-164 40q-104 0 -170.5 -41t-114.5 -133v154h-278v-1010z" />
<glyph unicode="n" horiz-adv-x="1122" d="M123 0h293v567q0 113 41 172.5t116 59.5q39 0 64 -10.5t39 -37t20 -70.5t6 -114v-567h297v649q0 59 -5 107.5t-17 89.5q-23 86 -98.5 135t-186.5 49q-55 0 -97 -10t-76 -32.5t-63.5 -58.5t-56.5 -89v170h-276v-1010z" />
<glyph unicode="o" horiz-adv-x="1095" d="M66 506q0 -119 33.5 -216t96 -166t149.5 -106.5t196 -37.5t199.5 37.5t155.5 107.5t100.5 165t35.5 212q0 119 -34.5 217t-99 166.5t-155 106.5t-200.5 38q-109 0 -197 -37t-150.5 -105.5t-96 -165.5t-33.5 -216zM379 512v18q0 166 39 237t131 71t130 -77t38 -263 q0 -168 -40 -245t-130 -77q-88 0 -126 77t-42 259z" />
<glyph unicode="p" horiz-adv-x="1107" d="M123 -342h293v455q41 -72 99 -102.5t144 -30.5q180 0 280.5 140t100.5 390q0 248 -98 384t-274 136q-47 0 -85 -8t-70 -28.5t-60.5 -52.5t-55.5 -79v148h-274v-1352zM416 442v150q0 111 41.5 171t115.5 60q82 0 120 -74.5t38 -234.5q0 -170 -38 -248t-122 -78 t-119.5 59.5t-35.5 194.5z" />
<glyph unicode="q" horiz-adv-x="1114" d="M68 504q0 -248 104 -386t291 -138q39 0 70.5 6t59.5 20t54.5 38t54.5 60v-446h289v1212q0 25 3 58t10 82h-160q-10 -25 -16.5 -41.5t-14.5 -30.5t-18.5 -29.5t-26.5 -38.5q-55 90 -117.5 125t-167.5 35q-197 0 -306 -138t-109 -388zM379 500q0 178 38 253.5t130 75.5 q72 0 113.5 -57t41.5 -154v-202q0 -98 -46.5 -164t-118.5 -66q-86 0 -122 73t-36 241z" />
<glyph unicode="r" horiz-adv-x="710" d="M123 0h293v412q0 323 224 323h1h27v293q-16 2 -29.5 3t-24.5 1q-78 0 -127 -47t-92 -164v189h-272v-1010z" />
<glyph unicode="s" horiz-adv-x="970" d="M10 279q16 -68 36 -103t63 -76q68 -66 151.5 -93t210.5 -27q209 0 330 94t121 258q0 68 -24 127t-67 96q-23 20 -50 34.5t-67 27t-95.5 22.5t-133.5 20q-51 6 -83.5 14.5t-52 18.5t-27 24.5t-7.5 37.5q0 43 40 66.5t112 23.5q152 0 195 -135l217 57q-55 143 -148.5 203.5 t-255.5 60.5q-195 0 -310.5 -89t-115.5 -243q0 -70 30 -131t83 -102q41 -31 145.5 -59.5t241.5 -45.5q61 -8 87 -26.5t26 -54.5q0 -45 -49.5 -73t-129.5 -28q-182 0 -221 137z" />
<glyph unicode="t" horiz-adv-x="720" d="M0 778h162v-471q0 -90 18.5 -153.5t59.5 -102.5t106.5 -56.5t161.5 -17.5q29 0 57.5 3.5t75.5 11.5l49 8v221q-35 -4 -53 -4h-39q-43 0 -69.5 5t-41 19.5t-19.5 41t-5 69.5v426h213v232h-213v319l-260 -20l-25 -299h-178v-232z" />
<glyph unicode="u" horiz-adv-x="1103" d="M123 350q0 -55 2 -95t8 -69.5t17.5 -54.5t27.5 -49q70 -102 236 -102q111 0 180.5 45t116.5 147v-172h270v1010h-293v-568q0 -125 -37 -176t-125 -51q-57 0 -83.5 32t-26.5 103v660h-293v-660z" />
<glyph unicode="v" horiz-adv-x="923" d="M-6 1010l346 -1010h231l347 1010h-222l-198 -639l-195 639h-309z" />
<glyph unicode="w" horiz-adv-x="1476" d="M10 1010l312 -1010h251l158 649l160 -649h264l303 1010h-229l-172 -621l-148 621h-270l-154 -617l-163 617h-312z" />
<glyph unicode="x" horiz-adv-x="1011" d="M0 0h256l205 348l211 -348h340l-340 543l291 467h-256l-160 -273l-162 273h-340l289 -467z" />
<glyph unicode="y" horiz-adv-x="911" d="M-6 1010l366 -1010q-20 -74 -53 -99.5t-108 -25.5q-39 0 -68 2t-80 10v-229q53 -6 81 -8t63 -2q47 0 80.5 5t66.5 15q76 25 127 96q51 68 78 148q12 39 43 129l315 969h-217l-186 -600l-193 600h-315z" />
<glyph unicode="z" horiz-adv-x="876" d="M41 0h795v217h-469l450 608v185h-739v-203h407l-444 -590v-217z" />
<glyph unicode="{" d="M244 389q61 -12 86.5 -51t25.5 -125v-317q0 -160 72 -227.5t240 -67.5h24l66 2l67 2v235q-16 -2 -24 -2h-17q-51 0 -82.5 4t-49 17.5t-23.5 36t-6 59.5v25v251q0 51 -6.5 90t-20.5 69t-37.5 54.5t-58.5 47.5q37 25 60.5 49t37.5 53t19.5 66t5.5 90v251v25q0 37 6 60.5 t23.5 36t49 16.5t82.5 4h41v233l-67 2l-66 2q-6 0 -12 1t-12 1q-170 0 -241 -67.5t-71 -229.5v-315v-16l-8 -47q-10 -74 -104 -93v-225z" />
<glyph unicode="|" d="M379 -512h266v2048h-266v-2048z" />
<glyph unicode="}" d="M244 -160v-235l69 -2l66 -2h24q168 0 240 67.5t72 227.5v317v14l6 47q12 72 104 95v225q-61 12 -85.5 51t-24.5 125v315q0 160 -72 228.5t-240 68.5q-6 0 -12 -1t-12 -1l-66 -2l-69 -2v-233h41q51 0 83.5 -4t50 -16.5t24 -36t6.5 -60.5v-25v-251q0 -51 6 -89t20 -69 t38 -54.5t58 -45.5q-37 -27 -60.5 -51.5t-37.5 -53.5t-19 -67t-5 -89v-251v-25q0 -37 -6.5 -59.5t-24 -36t-49 -17.5t-82.5 -4h-19q-8 0 -24 2z" />
<glyph unicode="~" horiz-adv-x="1366" d="M184 1243l146 -96q20 37 36.5 61.5t33 39t35.5 19.5t44 5q12 0 24.5 -2t30 -6t43 -13.5t68.5 -23.5q47 -16 80 -27.5t56.5 -17.5t41 -9.5t33.5 -3.5q63 0 133 33q31 16 54.5 34.5t45 46.5t44 67t49.5 94l-152 88q-35 -61 -65.5 -83t-79.5 -22q-16 0 -28.5 1.5t-31 5.5 t-46 14t-72.5 27q-78 29 -127.5 41t-83.5 12q-53 0 -94.5 -12.5t-76 -42t-64.5 -77.5t-60 -118q-4 -6 -8.5 -15.5t-8.5 -19.5z" />
<glyph unicode="&#xa1;" horiz-adv-x="602" d="M111 -342h383l-101 958h-184zM143 709h316v315h-316v-315z" />
<glyph unicode="&#xa2;" horiz-adv-x="1193" d="M164 694q0 -201 102.5 -328.5t288.5 -160.5v-260h162v260q68 14 104.5 28.5t79.5 42.5q74 51 112 117t56 176l-260 21q-10 -92 -50 -133t-116 -41q-88 0 -135 69.5t-47 200.5q0 154 45 227.5t139 73.5q72 0 111 -41t53 -137l264 16q-6 35 -12 59.5t-13.5 46t-16.5 40 t-23 41.5q-47 78 -114 118.5t-177 57.5v213h-162v-213q-184 -18 -287.5 -149.5t-103.5 -344.5z" />
<glyph unicode="&#xa3;" horiz-adv-x="1193" d="M10 0h652q123 0 202.5 26.5t151.5 88.5q27 25 47 48t36.5 51t31 63.5t28.5 84.5l-276 84q-55 -190 -234 -190h-203q45 39 75 76t48.5 77t25.5 86t7 105v23h199v211h-223l-5 26q-8 49 -11 82t-3 55q0 76 34 118t95 42q53 0 83 -29.5t52 -101.5l256 100q-94 260 -395 260 q-203 0 -317.5 -108.5t-114.5 -300.5q0 -29 2 -59.5t12 -83.5h-157v-211h188q10 -59 12 -85t2 -57q0 -109 -55 -167t-156 -58h-90v-256z" />
<glyph unicode="&#xa4;" horiz-adv-x="1366" d="M39 1268l215 -213q-47 -72 -69.5 -137.5t-22.5 -143.5q0 -145 90 -282l-211 -211l143 -144l211 209q78 -49 143.5 -69.5t143.5 -20.5q154 0 291 92l211 -211l141 146l-211 211q47 72 68.5 137t21.5 141q0 78 -21.5 142.5t-72.5 144.5l209 209l-143 143l-211 -209 q-72 47 -137.5 67.5t-143.5 20.5t-145.5 -21.5t-141.5 -68.5l-213 213zM406 772q0 57 21.5 108.5t59 90.5t88 60.5t109.5 21.5q57 0 107.5 -21.5t88.5 -60.5t59.5 -90.5t21.5 -108.5t-21.5 -108.5t-59.5 -89t-88.5 -59t-107.5 -21.5t-108.5 21.5t-89 59t-59 89t-21.5 108.5z " />
<glyph unicode="&#xa5;" horiz-adv-x="1193" d="M35 1366l268 -492h-225v-178h321l66 -121v-16h-387v-176h387v-383h266v383h385v176h-385v16l66 121h319v178h-223l266 492h-260l-258 -520l-262 520h-344z" />
<glyph unicode="&#xa7;" horiz-adv-x="1193" d="M115 -59q14 -41 28.5 -70t32 -51.5t36.5 -41t48 -38.5q143 -102 352 -102q106 0 192.5 27.5t148 77.5t94 122t32.5 158q0 92 -34.5 155.5t-116.5 118.5q35 35 59.5 67.5t39.5 64.5t21.5 67.5t6.5 76.5q0 106 -61.5 186.5t-178.5 125.5l-137 53l-113 45q-66 27 -90 51.5 t-24 61.5q0 47 45 75.5t122 28.5q90 0 140.5 -28.5t81.5 -96.5l215 60q-16 31 -29.5 53t-26 39.5t-28 32t-33.5 30.5q-121 96 -317 96q-98 0 -177 -24.5t-135.5 -68.5t-87.5 -107.5t-31 -141.5q0 -39 4.5 -67.5t15.5 -53t29.5 -47t49.5 -49.5q-76 -74 -105.5 -141.5 t-29.5 -157.5q0 -121 69.5 -198.5t229.5 -134.5l133 -50q123 -45 179 -90t56 -98q0 -55 -53 -88t-143 -33q-86 0 -143.5 33t-116.5 119zM401 612q0 35 17.5 60.5t62.5 52.5l33 -14q20 -8 43 -16.5t47 -18.5q57 -23 97 -42.5t62.5 -40t33 -41t10.5 -46.5q0 -61 -74 -115 q-23 8 -38 13.5t-30.5 11.5t-33.5 14.5t-43 18.5q-57 25 -94 44t-57.5 37.5t-28 38t-7.5 43.5z" />
<glyph unicode="&#xa8;" d="M238 1296q0 -47 32.5 -80.5t79.5 -33.5t80 33.5t33 80.5t-33 81t-80 34t-79.5 -34t-32.5 -81zM557 1294q0 -47 34 -79.5t81 -32.5t80.5 33.5t33.5 80.5t-33.5 80t-80.5 33t-81 -34t-34 -81z" />
<glyph unicode="&#xa9;" horiz-adv-x="1515" d="M55 682q0 -145 55.5 -273t150.5 -223.5t223 -150.5t274 -55q145 0 273 55t223.5 150.5t150.5 223.5t55 273t-55 274t-150.5 224.5t-223.5 150.5t-273 55t-273.5 -55t-223.5 -150.5t-150.5 -224.5t-55.5 -274zM217 682q0 113 42 212t116 174t172 118t211 43t211 -43 t171.5 -117t115.5 -174t42 -213t-42 -212t-115.5 -173t-171.5 -117t-211 -43q-111 0 -209 43t-172 117t-117 173t-43 212zM381 684q0 -94 27.5 -170t79 -129t123 -82t161.5 -29q309 0 358 291v6l-208 13v-6q-27 -141 -148 -142q-80 0 -118 57.5t-38 180.5q0 256 152 256 q66 0 98.5 -37t36.5 -123v-6l225 12v8q-25 158 -110.5 233t-243.5 75q-90 0 -162.5 -29t-125 -82t-80 -129t-27.5 -168z" />
<glyph unicode="&#xaa;" horiz-adv-x="796" d="M0 608h797v68h-797v-68zM127 965q0 -72 49 -114t133 -42q59 0 98 18.5t78 65.5q0 -23 2 -35t7 -39h176q-8 25 -10.5 38.5t-2.5 27.5v41v241q0 117 -54 164t-187 47q-240 0 -273 -178l166 -14q6 78 92 78q78 0 78 -74v-25q-41 -4 -65.5 -6t-42 -4t-32.5 -5t-38 -7 q-84 -16 -129 -63.5t-45 -114.5zM311 981q0 41 38 62.5t130 31.5v-43q0 -49 -29.5 -81.5t-70.5 -32.5q-31 0 -49.5 17t-18.5 46z" />
<glyph unicode="&#xab;" horiz-adv-x="698" d="M68 526l170 -286h102l-102 286l102 291h-102zM340 526l172 -286h104l-104 286l104 291h-104z" />
<glyph unicode="&#xac;" d="M68 307h622v-307h266v547h-888v-240z" />
<glyph unicode="&#xad;" horiz-adv-x="477" d="M0 412h477v217h-477v-217z" />
<glyph unicode="&#xae;" horiz-adv-x="1021" d="M82 1141q0 -90 34 -168t92 -136.5t136 -92t166 -33.5t167 33.5t137 92t92 136.5t34 168q0 88 -34 165.5t-92 136t-137 92.5t-167 34t-166 -34t-136 -92.5t-92 -136t-34 -165.5zM150 1141q0 74 28.5 139.5t77.5 114.5t114.5 77.5t139.5 28.5q76 0 141.5 -28.5t114.5 -77.5 t76.5 -115t27.5 -139q0 -76 -27.5 -141.5t-76.5 -114.5t-114.5 -77t-141.5 -28q-74 0 -139.5 28t-114.5 77t-77.5 114.5t-28.5 141.5zM322 915h124v175h72l72 -175h137l-90 197q82 35 82 117q0 66 -47 101.5t-133 35.5h-217v-451zM446 1176v100h60q47 0 66.5 -10.5 t19.5 -38.5q0 -29 -18.5 -40t-63.5 -11h-64z" />
<glyph unicode="&#xaf;" d="M199 1223h626v135h-626v-135z" />
<glyph unicode="&#xb0;" d="M197 1042q0 -66 24.5 -122t67.5 -99t100 -67.5t123 -24.5t123 24.5t100 67.5t67.5 99.5t24.5 121.5q0 63 -24.5 120t-67.5 99t-100 66.5t-123 24.5t-123 -24.5t-100 -66.5t-67.5 -98.5t-24.5 -120.5zM354 1042q0 63 46 108.5t112 45.5t112 -45t46 -111q0 -63 -46 -108 t-112 -45t-112 45t-46 110z" />
<glyph unicode="&#xb1;" d="M68 102h888v246h-888v-246zM68 731h311v-315h266v315h311v246h-311v313h-266v-313h-311v-246z" />
<glyph unicode="&#xb4;" d="M260 1251l49 -118l455 163l-70 172z" />
<glyph unicode="&#xb5;" d="M55 -354h264v458q39 -66 85.5 -95t109.5 -29q66 0 113 31.5t84 103.5v-115h262v983h-262v-512q0 -283 -191 -283q-201 0 -201 275v520h-264v-1337z" />
<glyph unicode="&#xb6;" horiz-adv-x="1193" d="M-16 1016q0 -176 106 -271q27 -25 55.5 -40t65.5 -24t84 -12t115 -3h16h94h101v-1008h124v1581h123v-1581h121v1708h-461l-100 -2h-109q-156 -2 -245.5 -94t-89.5 -254zM225 1012q0 68 13.5 112.5t47 70.5t92 36t148.5 10h95v-450h-99q-88 0 -145.5 10t-91 34.5t-47 67.5 t-13.5 109z" />
<glyph unicode="&#xb7;" horiz-adv-x="372" d="M0 526h373v353h-373v-353z" />
<glyph unicode="&#xb8;" d="M317 -332q59 -35 108.5 -50t102.5 -15q82 0 137.5 47t55.5 117q0 57 -49 100t-117 43h-12t-19 -2l37 92h-100l-64 -174q37 6 58 6q49 0 79.5 -20.5t30.5 -53.5q0 -27 -19.5 -42t-49.5 -15q-63 0 -146 47z" />
<glyph unicode="&#xba;" horiz-adv-x="796" d="M0 608h797v68h-797v-68zM123 1094q-2 -129 72.5 -207t197.5 -78q125 0 203 78t78 205q0 129 -76 207.5t-203 78.5q-125 0 -198.5 -77.5t-73.5 -206.5zM309 1096v10q0 86 20.5 122t69.5 36q47 0 67.5 -39t20.5 -135q0 -88 -21.5 -127t-68.5 -39t-66.5 38.5t-21.5 133.5z " />
<glyph unicode="&#xbb;" horiz-adv-x="698" d="M82 240h104l172 286l-172 291h-104l104 -291zM358 240h101l172 286l-172 291h-101l101 -291z" />
<glyph unicode="&#xbf;" horiz-adv-x="1044" d="M57 55q0 -88 35 -161.5t97.5 -128t148.5 -84t186 -29.5q119 0 216.5 43t164.5 129q25 31 42.5 58.5t29.5 60t21.5 72.5t19.5 96l-275 39q-16 -135 -61 -192.5t-137 -57.5q-72 0 -117 44t-45 115q0 59 24.5 99.5t90.5 87.5q61 45 97 77.5t53.5 68.5t22.5 83t5 123v35h-256 v-17q0 -35 -5 -58t-19.5 -43.5t-42 -42t-72.5 -52.5q-223 -150 -224 -365zM389 723h316v301h-316v-301z" />
<glyph unicode="&#xc0;" horiz-adv-x="1245" d="M0 0h281l86 281h440l84 -281h344l-428 1366h-371zM367 1634l452 -159l49 118l-436 215zM442 532l146 480l145 -480h-291z" />
<glyph unicode="&#xc1;" horiz-adv-x="1245" d="M0 0h281l86 281h440l84 -281h344l-428 1366h-371zM367 1593l49 -118l452 161l-67 172zM442 532l146 480l145 -480h-291z" />
<glyph unicode="&#xc2;" horiz-adv-x="1245" d="M0 0h281l86 281h440l84 -281h344l-428 1366h-371zM254 1489h203l170 110l172 -110h211l-383 299zM442 532l146 480l145 -480h-291z" />
<glyph unicode="&#xc3;" horiz-adv-x="1245" d="M0 0h281l86 281h440l84 -281h344l-428 1366h-371zM258 1618l92 -102q70 68 137 67q29 0 84 -22q35 -14 57.5 -22.5t40 -13.5t33 -6t33.5 -1q70 0 127.5 31.5t114.5 101.5l-92 106q-74 -90 -152 -90q-29 0 -94 27q-47 23 -82 30t-70 7q-119 0 -229 -113zM442 532l146 480 l145 -480h-291z" />
<glyph unicode="&#xc4;" horiz-adv-x="1245" d="M0 0h281l86 281h440l84 -281h344l-428 1366h-371zM309 1628q0 -53 36 -90t87 -37q53 0 89 38t36 91t-36 89t-87 36q-53 0 -89 -37t-36 -90zM442 532l146 480l145 -480h-291zM692 1628q0 -53 36 -90t87 -37t87 38t36 91t-35 89t-88 36q-51 0 -87 -37t-36 -90z" />
<glyph unicode="&#xc5;" horiz-adv-x="1245" d="M0 0h281l86 281h440l84 -281h344l-428 1366h-371zM434 1651q0 -41 14.5 -77t40 -62.5t60.5 -42t74 -15.5t73.5 15.5t60 42t41 62.5t15.5 77t-14.5 76.5t-41 62.5t-61 42t-73.5 15t-74 -15t-60.5 -42t-40 -62.5t-14.5 -76.5zM442 532l146 480l145 -480h-291zM549 1649 q0 33 21.5 55t52.5 22t52 -22.5t21 -52.5q0 -33 -21 -55.5t-52 -22.5t-52.5 22.5t-21.5 53.5z" />
<glyph unicode="&#xc6;" horiz-adv-x="1726" d="M-14 0h276l146 315h317v-315h946v270h-624v299h497v258h-497v281h624v258h-1059zM502 545l223 491v-491h-223z" />
<glyph unicode="&#xc7;" horiz-adv-x="1286" d="M72 684q0 -147 36.5 -270t104.5 -213t165 -146.5t220 -70.5l-43 -162q31 4 47 6t33 2q53 0 85 -24.5t32 -65.5q0 -35 -27 -54.5t-72 -19.5q-33 0 -68.5 10.5t-95.5 34.5l-34 -84q84 -37 136 -51t111 -14q106 0 171 49t65 133q0 72 -55.5 121t-134.5 49h-25q-10 0 -31 -4 l17 70q45 2 77.5 6t60 11t55.5 18.5t63 29.5q104 57 172 150q23 33 39 60.5t27 60t19.5 71.5t16.5 92l-311 19q-43 -256 -242 -256q-135 0 -196.5 102t-61.5 326q0 459 252 458q109 0 162 -70.5t61 -221.5l336 22q-10 63 -19.5 109.5t-21.5 83t-30.5 69.5t-45.5 72 q-141 195 -434 194q-141 0 -255 -49t-193.5 -141t-123.5 -222t-44 -290z" />
<glyph unicode="&#xc8;" horiz-adv-x="1167" d="M137 0h975v268h-651v299h512v258h-512v279h651v262h-975v-1366zM373 1634l452 -159l52 118l-439 215z" />
<glyph unicode="&#xc9;" horiz-adv-x="1167" d="M137 0h975v268h-651v299h512v258h-512v279h651v262h-975v-1366zM373 1593l49 -118l455 161l-70 172z" />
<glyph unicode="&#xca;" horiz-adv-x="1167" d="M137 0h975v268h-651v299h512v258h-512v279h651v262h-975v-1366zM246 1489h205l170 110l172 -110h211l-383 299z" />
<glyph unicode="&#xcb;" horiz-adv-x="1167" d="M137 0h975v268h-651v299h512v258h-512v279h651v262h-975v-1366zM309 1628q0 -53 36 -90t89 -37q51 0 87 38t36 91t-36 89t-87 36q-53 0 -89 -37t-36 -90zM692 1628q0 -53 36 -90t87 -37t88 38t37 91t-36 89t-89 36q-51 0 -87 -37t-36 -90z" />
<glyph unicode="&#xcc;" horiz-adv-x="593" d="M45 1634l453 -159l51 118l-438 215zM137 0h320v1366h-320v-1366z" />
<glyph unicode="&#xcd;" horiz-adv-x="593" d="M45 1593l49 -118l455 161l-70 172zM137 0h320v1366h-320v-1366z" />
<glyph unicode="&#xce;" horiz-adv-x="593" d="M-53 1489h207l139 108l143 -108h211l-354 299zM137 0h320v1366h-320v-1366z" />
<glyph unicode="&#xcf;" horiz-adv-x="593" d="M35 1616q0 -47 32.5 -81t79.5 -34t80 35t33 82t-33 81t-80 34t-79.5 -34t-32.5 -83zM137 0h320v1366h-320v-1366zM328 1616q0 -47 33.5 -81t80.5 -34t81 34t34 81t-34 81t-81 34t-80.5 -34t-33.5 -81z" />
<glyph unicode="&#xd1;" horiz-adv-x="1323" d="M137 0h248v817q0 6 -1 20.5t-3 39.5q0 8 -1 18t-1 27l536 -922h273v1366h-248v-715q0 -20 1 -38.5t5 -53.5l-465 807h-344v-1366zM303 1618l92 -102q70 68 137 67q29 0 84 -22q33 -14 56.5 -22.5t41 -13.5t33 -6t33.5 -1q68 0 126.5 31.5t115.5 101.5l-92 106 q-74 -90 -152 -90q-29 0 -94 27q-47 23 -82 30t-70 7q-63 0 -118.5 -27t-110.5 -86z" />
<glyph unicode="&#xd2;" horiz-adv-x="1308" d="M72 688q0 -160 42 -291t117.5 -223t182 -143t235.5 -51q139 0 251 50t185 148q72 92 112 227.5t40 276.5t-41 275.5t-113 230.5q-154 199 -421 198q-135 0 -244 -49t-185.5 -140t-118.5 -220t-42 -289zM403 1634l453 -159l51 118l-438 215zM406 680q0 98 16 183.5 t45 144.5q57 117 192 116q244 0 244 -442q0 -440 -246 -440q-252 0 -251 438z" />
<glyph unicode="&#xd3;" horiz-adv-x="1308" d="M72 688q0 -160 42 -291t117.5 -223t182 -143t235.5 -51q139 0 251 50t185 148q72 92 112 227.5t40 276.5t-41 275.5t-113 230.5q-154 199 -421 198q-135 0 -244 -49t-185.5 -140t-118.5 -220t-42 -289zM403 1593l50 -118l454 161l-69 172zM406 680q0 98 16 183.5 t45 144.5q57 117 192 116q244 0 244 -442q0 -440 -246 -440q-252 0 -251 438z" />
<glyph unicode="&#xd4;" horiz-adv-x="1308" d="M72 688q0 -160 42 -291t117.5 -223t182 -143t235.5 -51q139 0 251 50t185 148q72 92 112 227.5t40 276.5t-41 275.5t-113 230.5q-154 199 -421 198q-135 0 -244 -49t-185.5 -140t-118.5 -220t-42 -289zM276 1489h205l168 110l174 -110h209l-383 299zM406 680 q0 98 16 183.5t45 144.5q57 117 192 116q244 0 244 -442q0 -440 -246 -440q-252 0 -251 438z" />
<glyph unicode="&#xd5;" horiz-adv-x="1308" d="M72 688q0 -160 42 -291t117.5 -223t182 -143t235.5 -51q139 0 251 50t185 148q72 92 112 227.5t40 276.5t-41 275.5t-113 230.5q-154 199 -421 198q-135 0 -244 -49t-185.5 -140t-118.5 -220t-42 -289zM295 1618l92 -102q74 68 139 67q29 0 84 -22q33 -14 56.5 -22.5 t40 -13.5t32 -6t33.5 -1q70 0 127 31.5t115 101.5l-92 106q-74 -90 -152 -90q-27 0 -92 27q-49 23 -83 30t-71 7q-119 0 -229 -113zM406 680q0 98 16 183.5t45 144.5q57 117 192 116q244 0 244 -442q0 -440 -246 -440q-252 0 -251 438z" />
<glyph unicode="&#xd6;" horiz-adv-x="1308" d="M72 688q0 -160 42 -291t117.5 -223t182 -143t235.5 -51q139 0 251 50t185 148q72 92 112 227.5t40 276.5t-41 275.5t-113 230.5q-154 199 -421 198q-135 0 -244 -49t-185.5 -140t-118.5 -220t-42 -289zM340 1628q0 -53 36 -90t87 -37q53 0 89 38t36 91t-36 89t-87 36 q-53 0 -89 -37t-36 -90zM406 680q0 98 16 183.5t45 144.5q57 117 192 116q244 0 244 -442q0 -440 -246 -440q-252 0 -251 438zM723 1628q0 -53 36 -90t87 -37t87 38t36 91t-35 89t-88 36q-51 0 -87 -37t-36 -90z" />
<glyph unicode="&#xd8;" horiz-adv-x="1306" d="M72 676q0 -66 8 -131.5t24 -128.5q12 -49 25.5 -85t31 -68t42 -63.5t59.5 -70.5l-151 -266h182l100 168q39 -16 67.5 -26.5t55.5 -15.5t55.5 -7t67.5 -2q293 0 440 200q76 100 116 231.5t40 278.5q0 137 -37 266q-12 47 -24.5 81t-29 65t-38 60.5t-53.5 68.5l125 258 h-187l-71 -158q-39 16 -69 27.5t-57.5 17.5t-58 8t-71.5 2q-293 0 -443 -204q-72 -98 -110.5 -228.5t-38.5 -277.5zM403 649q0 238 64.5 358.5t189.5 120.5q39 0 65 -8t66 -35l-356 -653q-10 35 -15 59.5t-8 48t-4.5 49t-1.5 60.5zM526 276l353 646q6 -35 11 -59.5t7 -47 t3 -47.5t1 -57q0 -471 -250 -471q-39 0 -62.5 7t-62.5 29z" />
<glyph unicode="&#xd9;" horiz-adv-x="1331" d="M123 514q0 -152 27.5 -242t95.5 -157q135 -135 430 -135q262 0 409 126q37 31 61.5 67t39 83t20.5 109.5t6 148.5v852h-272v-852q0 -80 -12.5 -133t-40 -85t-73.5 -46t-114 -14q-129 0 -180 61t-51 217v852h-346v-852zM430 1634l453 -159l51 118l-438 215z" />
<glyph unicode="&#xda;" horiz-adv-x="1331" d="M123 514q0 -152 27.5 -242t95.5 -157q135 -135 430 -135q262 0 409 126q37 31 61.5 67t39 83t20.5 109.5t6 148.5v852h-272v-852q0 -80 -12.5 -133t-40 -85t-73.5 -46t-114 -14q-129 0 -180 61t-51 217v852h-346v-852zM430 1593l49 -118l455 161l-70 172z" />
<glyph unicode="&#xdb;" horiz-adv-x="1331" d="M123 514q0 -152 27.5 -242t95.5 -157q135 -135 430 -135q262 0 409 126q37 31 61.5 67t39 83t20.5 109.5t6 148.5v852h-272v-852q0 -80 -12.5 -133t-40 -85t-73.5 -46t-114 -14q-129 0 -180 61t-51 217v852h-346v-852zM317 1489h205l168 110l172 -110h211l-383 299z" />
<glyph unicode="&#xdc;" horiz-adv-x="1331" d="M123 514q0 -152 27.5 -242t95.5 -157q135 -135 430 -135q262 0 409 126q37 31 61.5 67t39 83t20.5 109.5t6 148.5v852h-272v-852q0 -80 -12.5 -133t-40 -85t-73.5 -46t-114 -14q-129 0 -180 61t-51 217v852h-346v-852zM381 1628q0 -53 36 -90t87 -37t88 38t37 91t-36 89 t-89 36q-51 0 -87 -37t-36 -90zM762 1628q0 -53 36 -90t89 -37q51 0 87 38t36 91t-36 89t-87 36q-53 0 -89 -37t-36 -90z" />
<glyph unicode="&#xdf;" horiz-adv-x="1280" d="M27 711h102v-832h311v1071q0 168 45 237.5t150 69.5q70 0 115 -36.5t45 -90.5q0 -57 -43 -89.5t-148 -59.5q-59 -61 -84.5 -113.5t-25.5 -113.5q0 -68 42 -127.5t113 -89.5l113 -50q106 -47 148 -83.5t42 -90.5q0 -57 -47 -93t-121 -36q-20 0 -37.5 2t-38 6.5t-45 11.5 t-59.5 19l-78 -203q39 -12 69 -20t55.5 -12t51 -6t56.5 -2q104 0 191 29.5t149.5 81.5t98.5 125t36 159q0 61 -22.5 119.5t-65.5 108.5t-102.5 90t-133.5 67l-157 55q-31 10 -31 23q0 12 24 18l107 27q106 27 175 104.5t69 173.5q0 68 -32 126.5t-87 100.5t-132 65.5 t-167 23.5q-123 0 -224.5 -37t-173 -104.5t-111.5 -162t-40 -208.5v-31h-102v-223z" />
<glyph unicode="&#xe0;" horiz-adv-x="1110" d="M61 262q0 -129 86 -205.5t232 -76.5q55 0 98 9t81 29.5t73 54t71 85.5v-27v-35q0 -14 1.5 -27.5t4.5 -29.5t7 -39h293q-12 41 -16.5 63.5t-4.5 51.5v73v459q0 68 -3 113t-13 77.5t-28.5 55t-47.5 47.5q-53 43 -138 66.5t-190 23.5q-225 0 -358 -102q-51 -37 -75.5 -82 t-41.5 -131l275 -25q10 72 54 110t120 38q147 0 147 -148v-59q-74 -6 -120 -10.5t-77.5 -8.5t-59.5 -9t-66 -13q-145 -31 -224.5 -116t-79.5 -212zM299 1292l451 -159l47 116l-437 215zM371 295q0 41 16 71.5t54 53t98.5 38t148.5 25.5v-90q0 -98 -54 -163.5t-134 -65.5 q-57 0 -93 36t-36 95z" />
<glyph unicode="&#xe1;" horiz-adv-x="1110" d="M61 262q0 -129 86 -205.5t232 -76.5q55 0 98 9t81 29.5t73 54t71 85.5v-27v-35q0 -14 1.5 -27.5t4.5 -29.5t7 -39h293q-12 41 -16.5 63.5t-4.5 51.5v73v459q0 68 -3 113t-13 77.5t-28.5 55t-47.5 47.5q-53 43 -138 66.5t-190 23.5q-225 0 -358 -102q-51 -37 -75.5 -82 t-41.5 -131l275 -25q10 72 54 110t120 38q147 0 147 -148v-59q-74 -6 -120 -10.5t-77.5 -8.5t-59.5 -9t-66 -13q-145 -31 -224.5 -116t-79.5 -212zM297 1251l49 -118l453 163l-68 172zM371 295q0 41 16 71.5t54 53t98.5 38t148.5 25.5v-90q0 -98 -54 -163.5t-134 -65.5 q-57 0 -93 36t-36 95z" />
<glyph unicode="&#xe2;" horiz-adv-x="1110" d="M61 262q0 -129 86 -205.5t232 -76.5q55 0 98 9t81 29.5t73 54t71 85.5v-27v-35q0 -14 1.5 -27.5t4.5 -29.5t7 -39h293q-12 41 -16.5 63.5t-4.5 51.5v73v459q0 68 -3 113t-13 77.5t-28.5 55t-47.5 47.5q-53 43 -138 66.5t-190 23.5q-225 0 -358 -102q-51 -37 -75.5 -82 t-41.5 -131l275 -25q10 72 54 110t120 38q147 0 147 -148v-59q-74 -6 -120 -10.5t-77.5 -8.5t-59.5 -9t-66 -13q-145 -31 -224.5 -116t-79.5 -212zM170 1147h205l168 110l172 -110h211l-383 299zM371 295q0 41 16 71.5t54 53t98.5 38t148.5 25.5v-90q0 -98 -54 -163.5 t-134 -65.5q-57 0 -93 36t-36 95z" />
<glyph unicode="&#xe3;" horiz-adv-x="1110" d="M61 262q0 -129 86 -205.5t232 -76.5q55 0 98 9t81 29.5t73 54t71 85.5v-27v-35q0 -14 1.5 -27.5t4.5 -29.5t7 -39h293q-12 41 -16.5 63.5t-4.5 51.5v73v459q0 68 -3 113t-13 77.5t-28.5 55t-47.5 47.5q-53 43 -138 66.5t-190 23.5q-225 0 -358 -102q-51 -37 -75.5 -82 t-41.5 -131l275 -25q10 72 54 110t120 38q147 0 147 -148v-59q-74 -6 -120 -10.5t-77.5 -8.5t-59.5 -9t-66 -13q-145 -31 -224.5 -116t-79.5 -212zM176 1290l90 -104q43 37 76 53t61 16q29 0 84 -24q53 -23 91 -33t73 -10q68 0 124 31.5t118 103.5l-90 98q-57 -47 -90 -65.5 t-64 -18.5q-33 0 -92 27q-53 23 -85 31t-66 8q-63 0 -114.5 -25.5t-115.5 -87.5zM371 295q0 41 16 71.5t54 53t98.5 38t148.5 25.5v-90q0 -98 -54 -163.5t-134 -65.5q-57 0 -93 36t-36 95z" />
<glyph unicode="&#xe4;" horiz-adv-x="1110" d="M61 262q0 -129 86 -205.5t232 -76.5q55 0 98 9t81 29.5t73 54t71 85.5v-27v-35q0 -14 1.5 -27.5t4.5 -29.5t7 -39h293q-12 41 -16.5 63.5t-4.5 51.5v73v459q0 68 -3 113t-13 77.5t-28.5 55t-47.5 47.5q-53 43 -138 66.5t-190 23.5q-225 0 -358 -102q-51 -37 -75.5 -82 t-41.5 -131l275 -25q10 72 54 110t120 38q147 0 147 -148v-59q-74 -6 -120 -10.5t-77.5 -8.5t-59.5 -9t-66 -13q-145 -31 -224.5 -116t-79.5 -212zM287 1296q0 -47 32.5 -80.5t79.5 -33.5t80 33.5t33 80.5t-33 81t-80 34t-79.5 -34t-32.5 -81zM371 295q0 41 16 71.5t54 53 t98.5 38t148.5 25.5v-90q0 -98 -54 -163.5t-134 -65.5q-57 0 -93 36t-36 95zM606 1294q0 -47 34 -79.5t81 -32.5q49 0 83 33.5t34 80.5t-34 80t-81 33t-82 -34t-35 -81z" />
<glyph unicode="&#xe5;" horiz-adv-x="1110" d="M61 262q0 -129 86 -205.5t232 -76.5q55 0 98 9t81 29.5t73 54t71 85.5v-27v-35q0 -14 1.5 -27.5t4.5 -29.5t7 -39h293q-12 41 -16.5 63.5t-4.5 51.5v73v459q0 68 -3 113t-13 77.5t-28.5 55t-47.5 47.5q-53 43 -138 66.5t-190 23.5q-225 0 -358 -102q-51 -37 -75.5 -82 t-41.5 -131l275 -25q10 72 54 110t120 38q147 0 147 -148v-59q-74 -6 -120 -10.5t-77.5 -8.5t-59.5 -9t-66 -13q-145 -31 -224.5 -116t-79.5 -212zM371 295q0 41 16 71.5t54 53t98.5 38t148.5 25.5v-90q0 -98 -54 -163.5t-134 -65.5q-57 0 -93 36t-36 95zM389 1298 q0 -39 14.5 -72.5t38 -59t56 -40t69.5 -14.5t70 14.5t57.5 40t39 59.5t14.5 72q0 78 -52.5 132.5t-128.5 54.5q-37 0 -69.5 -14.5t-56 -40t-38 -59.5t-14.5 -73zM498 1296q0 31 20.5 52.5t48.5 21.5q29 0 49.5 -21.5t20.5 -50.5q0 -31 -20.5 -51t-49.5 -20t-49 20.5 t-20 48.5z" />
<glyph unicode="&#xe6;" horiz-adv-x="1638" d="M61 262q0 -129 86 -205.5t230 -76.5q66 0 131 18q39 10 68.5 22.5t55 31t52.5 45t59 63.5q10 -12 20.5 -23.5t18.5 -21.5q61 -66 150.5 -100.5t197.5 -34.5q201 0 322 118q25 25 43 47.5t31.5 48t25 57.5t23.5 77l-262 20q-20 -82 -62.5 -118.5t-115.5 -36.5 q-186 0 -187 247v15h627q0 70 -3 119t-10.5 88.5t-21.5 75.5t-37 77q-53 100 -154.5 157.5t-228.5 57.5q-45 0 -78.5 -4t-64.5 -14.5t-61.5 -27.5t-69.5 -46q-41 29 -74 47.5t-65.5 28.5t-69.5 13t-88 3q-100 0 -187.5 -26.5t-152.5 -77.5q-25 -20 -43.5 -41t-31.5 -45.5 t-22.5 -56t-17.5 -74.5l271 -25q8 74 52 114t118 40q147 0 147 -129v-78q-29 -4 -50.5 -5t-37.5 -3q-147 -14 -241.5 -37t-157.5 -64q-61 -39 -97.5 -108.5t-36.5 -151.5zM367 297q0 86 75.5 131t239.5 55v-94q0 -47 -14.5 -88t-41 -70.5t-61.5 -47t-73 -17.5q-53 0 -89 37 t-36 94zM950 631q25 209 185 209q80 0 115.5 -46t47.5 -163h-348z" />
<glyph unicode="&#xe7;" horiz-adv-x="1048" d="M66 500q0 -109 29.5 -200t85 -158.5t133 -108.5t173.5 -51l-57 -156q37 6 57 6q49 0 80 -20.5t31 -53.5q0 -27 -19.5 -42t-50.5 -15q-63 0 -145 47l-33 -80q113 -66 209 -65q86 0 140.5 45t54.5 116q0 61 -47.5 103.5t-118.5 42.5h-15q-6 0 -16 -2l29 72q33 2 55.5 5 t43 7t39.5 11.5t44 19.5q94 45 158 129q20 27 33.5 49t22.5 47.5t16.5 56.5t13.5 74l-279 16q-27 -174 -166 -174q-92 0 -131 66.5t-39 228.5q0 150 43 220.5t135 70.5q72 0 110 -43t48 -137l279 14q-6 45 -13.5 79t-18.5 61.5t-28.5 53t-44.5 54.5q-127 141 -342 141 q-113 0 -205 -38t-157.5 -107.5t-101 -168t-35.5 -216.5z" />
<glyph unicode="&#xe8;" horiz-adv-x="1095" d="M66 496q0 -117 35.5 -212.5t101 -163t157 -104t203.5 -36.5q111 0 195 32.5t149 104.5q20 23 37 43t30 44.5t24.5 54.5t25.5 71l-270 20q-31 -160 -181 -160q-88 0 -141 59.5t-53 158.5q0 10 1 21t1 26h649q-2 70 -6 121t-13.5 91t-23.5 74.5t-39 75.5 q-57 98 -162.5 155.5t-232.5 57.5q-109 0 -198 -39t-153.5 -109.5t-100 -169t-35.5 -216.5zM299 1292l451 -159l47 116l-437 215zM381 629q20 211 186 211q82 0 121 -49.5t49 -161.5h-356z" />
<glyph unicode="&#xe9;" horiz-adv-x="1095" d="M66 496q0 -117 35.5 -212.5t101 -163t157 -104t203.5 -36.5q111 0 195 32.5t149 104.5q20 23 37 43t30 44.5t24.5 54.5t25.5 71l-270 20q-31 -160 -181 -160q-88 0 -141 59.5t-53 158.5q0 10 1 21t1 26h649q-2 70 -6 121t-13.5 91t-23.5 74.5t-39 75.5 q-57 98 -162.5 155.5t-232.5 57.5q-109 0 -198 -39t-153.5 -109.5t-100 -169t-35.5 -216.5zM297 1251l49 -118l453 163l-68 172zM381 629q20 211 186 211q82 0 121 -49.5t49 -161.5h-356z" />
<glyph unicode="&#xea;" horiz-adv-x="1095" d="M66 496q0 -117 35.5 -212.5t101 -163t157 -104t203.5 -36.5q111 0 195 32.5t149 104.5q20 23 37 43t30 44.5t24.5 54.5t25.5 71l-270 20q-31 -160 -181 -160q-88 0 -141 59.5t-53 158.5q0 10 1 21t1 26h649q-2 70 -6 121t-13.5 91t-23.5 74.5t-39 75.5 q-57 98 -162.5 155.5t-232.5 57.5q-109 0 -198 -39t-153.5 -109.5t-100 -169t-35.5 -216.5zM184 1147h203l170 110l172 -110h211l-383 299zM381 629q20 211 186 211q82 0 121 -49.5t49 -161.5h-356z" />
<glyph unicode="&#xeb;" horiz-adv-x="1095" d="M66 496q0 -117 35.5 -212.5t101 -163t157 -104t203.5 -36.5q111 0 195 32.5t149 104.5q20 23 37 43t30 44.5t24.5 54.5t25.5 71l-270 20q-31 -160 -181 -160q-88 0 -141 59.5t-53 158.5q0 10 1 21t1 26h649q-2 70 -6 121t-13.5 91t-23.5 74.5t-39 75.5 q-57 98 -162.5 155.5t-232.5 57.5q-109 0 -198 -39t-153.5 -109.5t-100 -169t-35.5 -216.5zM287 1296q0 -47 32.5 -80.5t79.5 -33.5t80 33.5t33 80.5t-33 81t-80 34t-79.5 -34t-32.5 -81zM381 629q20 211 186 211q82 0 121 -49.5t49 -161.5h-356zM606 1294q0 -47 34 -79.5 t81 -32.5t81 33.5t34 80.5t-34 80t-81 33t-81 -34t-34 -81z" />
<glyph unicode="&#xec;" horiz-adv-x="544" d="M23 1292l450 -159l49 116l-438 215zM123 0h299v1010h-299v-1010z" />
<glyph unicode="&#xed;" horiz-adv-x="544" d="M20 1251l52 -118l452 163l-69 172zM123 0h299v1010h-299v-1010z" />
<glyph unicode="&#xee;" horiz-adv-x="544" d="M-51 1147h203l116 110l121 -110h207l-328 299zM123 0h299v1010h-299v-1010z" />
<glyph unicode="&#xef;" horiz-adv-x="544" d="M10 1296q0 -47 33 -80.5t80 -33.5t80 33.5t33 80.5t-33 81t-80 34t-80 -34t-33 -81zM123 0h299v1010h-299v-1010zM303 1294q0 -47 34 -79.5t81 -32.5t82 33.5t35 80.5t-34 80t-81 33t-82 -34t-35 -81z" />
<glyph unicode="&#xf1;" horiz-adv-x="1122" d="M123 0h293v567q0 113 41 172.5t116 59.5q39 0 64 -10.5t39 -37t20 -70.5t6 -114v-567h297v649q0 59 -5 107.5t-17 89.5q-23 86 -98.5 135t-186.5 49q-55 0 -97 -10t-76 -32.5t-63.5 -58.5t-56.5 -89v170h-276v-1010zM203 1290l90 -104q45 37 76.5 53t60.5 16t84 -24 q53 -23 91 -33t73 -10q70 0 126 31.5t116 103.5l-91 98q-55 -47 -87.5 -65.5t-65.5 -18.5q-29 0 -92 27q-53 23 -84 31t-68 8q-61 0 -112.5 -25.5t-116.5 -87.5z" />
<glyph unicode="&#xf2;" horiz-adv-x="1095" d="M66 506q0 -119 33.5 -216t96 -166t149.5 -106.5t196 -37.5t199.5 37.5t155.5 107.5t100.5 165t35.5 212q0 119 -34.5 217t-99 166.5t-155 106.5t-200.5 38q-109 0 -197 -37t-150.5 -105.5t-96 -165.5t-33.5 -216zM299 1292l451 -159l47 116l-437 215zM379 512v18 q0 166 39 237t131 71t130 -77t38 -263q0 -168 -40 -245t-130 -77q-88 0 -126 77t-42 259z" />
<glyph unicode="&#xf3;" horiz-adv-x="1095" d="M66 506q0 -119 33.5 -216t96 -166t149.5 -106.5t196 -37.5t199.5 37.5t155.5 107.5t100.5 165t35.5 212q0 119 -34.5 217t-99 166.5t-155 106.5t-200.5 38q-109 0 -197 -37t-150.5 -105.5t-96 -165.5t-33.5 -216zM297 1251l49 -118l455 163l-70 172zM379 512v18 q0 166 39 237t131 71t130 -77t38 -263q0 -168 -40 -245t-130 -77q-88 0 -126 77t-42 259z" />
<glyph unicode="&#xf4;" horiz-adv-x="1095" d="M66 506q0 -119 33.5 -216t96 -166t149.5 -106.5t196 -37.5t199.5 37.5t155.5 107.5t100.5 165t35.5 212q0 119 -34.5 217t-99 166.5t-155 106.5t-200.5 38q-109 0 -197 -37t-150.5 -105.5t-96 -165.5t-33.5 -216zM170 1147h205l168 110l174 -110h209l-383 299zM379 512 v18q0 166 39 237t131 71t130 -77t38 -263q0 -168 -40 -245t-130 -77q-88 0 -126 77t-42 259z" />
<glyph unicode="&#xf5;" horiz-adv-x="1095" d="M66 506q0 -119 33.5 -216t96 -166t149.5 -106.5t196 -37.5t199.5 37.5t155.5 107.5t100.5 165t35.5 212q0 119 -34.5 217t-99 166.5t-155 106.5t-200.5 38q-109 0 -197 -37t-150.5 -105.5t-96 -165.5t-33.5 -216zM188 1290l93 -104q43 37 75.5 53t61.5 16t84 -24 q53 -23 91 -33t73 -10q68 0 124 31.5t117 103.5l-90 98q-57 -47 -90 -65.5t-63 -18.5q-33 0 -93 27q-53 23 -84.5 31t-66.5 8q-63 0 -114.5 -25.5t-117.5 -87.5zM379 512v18q0 166 39 237t131 71t130 -77t38 -263q0 -168 -40 -245t-130 -77q-88 0 -126 77t-42 259z" />
<glyph unicode="&#xf6;" horiz-adv-x="1095" d="M66 506q0 -119 33.5 -216t96 -166t149.5 -106.5t196 -37.5t199.5 37.5t155.5 107.5t100.5 165t35.5 212q0 119 -34.5 217t-99 166.5t-155 106.5t-200.5 38q-109 0 -197 -37t-150.5 -105.5t-96 -165.5t-33.5 -216zM268 1296q0 -47 33 -80.5t80 -33.5t80 33.5t33 80.5 t-33 81t-80 34t-80 -34t-33 -81zM379 512v18q0 166 39 237t131 71t130 -77t38 -263q0 -168 -40 -245t-130 -77q-88 0 -126 77t-42 259zM588 1294q0 -47 33.5 -79.5t80.5 -32.5t82 33.5t35 80.5t-33.5 80t-80.5 33t-82 -34t-35 -81z" />
<glyph unicode="&#xf7;" d="M68 573h888v246h-888v-246zM358 348q0 -63 45.5 -107t108.5 -44q31 0 58.5 11t48 31.5t33 49t12.5 59.5q0 63 -44.5 107.5t-107.5 44.5t-108.5 -44.5t-45.5 -107.5zM358 1044q0 -63 45.5 -107t108.5 -44q31 0 58.5 11t48 31.5t33 49.5t12.5 59q0 63 -44.5 107.5 t-107.5 44.5t-108.5 -44.5t-45.5 -107.5z" />
<glyph unicode="&#xf8;" horiz-adv-x="1095" d="M66 510q0 -106 32 -203q12 -37 23.5 -63.5t27 -50t36 -47t48.5 -52.5l-124 -215h161l88 137q27 -12 48.5 -19t41 -11t41 -5t50.5 -1q111 0 201.5 37.5t155.5 106.5t99.5 165t34.5 215q0 127 -38 225t-124 193l105 200h-156l-69 -125q-31 10 -53.5 17.5t-44 10.5t-45 4 t-54.5 1q-121 0 -208 -34.5t-148 -110.5q-63 -74 -96 -171.5t-33 -203.5zM381 479v53q0 168 37 238t129 70q33 0 51 -8.5t45 -30.5l-250 -436q-4 23 -6 40t-4 35.5t-2 38.5zM463 215l244 428q8 -47 9 -73.5t1 -75.5q0 -164 -39 -239t-127 -75q-33 0 -49.5 6.5t-38.5 28.5z " />
<glyph unicode="&#xf9;" horiz-adv-x="1103" d="M123 350q0 -55 2 -95t8 -69.5t17.5 -54.5t27.5 -49q70 -102 236 -102q111 0 180.5 45t116.5 147v-172h270v1010h-293v-568q0 -125 -37 -176t-125 -51q-57 0 -83.5 32t-26.5 103v660h-293v-660zM303 1292l451 -159l47 116l-436 215z" />
<glyph unicode="&#xfa;" horiz-adv-x="1103" d="M123 350q0 -55 2 -95t8 -69.5t17.5 -54.5t27.5 -49q70 -102 236 -102q111 0 180.5 45t116.5 147v-172h270v1010h-293v-568q0 -125 -37 -176t-125 -51q-57 0 -83.5 32t-26.5 103v660h-293v-660zM301 1251l49 -118l453 163l-68 172z" />
<glyph unicode="&#xfb;" horiz-adv-x="1103" d="M123 350q0 -55 2 -95t8 -69.5t17.5 -54.5t27.5 -49q70 -102 236 -102q111 0 180.5 45t116.5 147v-172h270v1010h-293v-568q0 -125 -37 -176t-125 -51q-57 0 -83.5 32t-26.5 103v660h-293v-660zM180 1147h205l170 110l172 -110h209l-381 299z" />
<glyph unicode="&#xfc;" horiz-adv-x="1103" d="M123 350q0 -55 2 -95t8 -69.5t17.5 -54.5t27.5 -49q70 -102 236 -102q111 0 180.5 45t116.5 147v-172h270v1010h-293v-568q0 -125 -37 -176t-125 -51q-57 0 -83.5 32t-26.5 103v660h-293v-660zM276 1296q0 -47 33 -80.5t80 -33.5t80 33.5t33 80.5t-33 81t-80 34t-80 -34 t-33 -81zM596 1294q0 -47 34 -79.5t81 -32.5t81.5 33.5t34.5 80.5t-33.5 80t-80.5 33t-82 -34t-35 -81z" />
<glyph unicode="&#xff;" horiz-adv-x="911" d="M-6 1010l366 -1010q-20 -74 -53 -99.5t-108 -25.5q-39 0 -68 2t-80 10v-229q53 -6 81 -8t63 -2q47 0 80.5 5t66.5 15q76 25 127 96q51 68 78 148q12 39 43 129l315 969h-217l-186 -600l-193 600h-315zM201 1296q0 -47 32.5 -80.5t79.5 -33.5t80 33.5t33 80.5t-32 81 t-79 34t-80.5 -34t-33.5 -81zM522 1294q0 -47 34 -79.5t81 -32.5t81 33.5t34 80.5t-34 80t-81 33t-81 -34t-34 -81z" />
<glyph unicode="&#x152;" horiz-adv-x="1902" d="M72 676q0 -143 44 -273.5t126 -230.5q80 -98 190.5 -145t263.5 -47q25 0 45.5 1t41 3t43 6t51.5 10h970v272h-643v299h514v256h-514v281h643v258h-970q-29 6 -51.5 10t-42 6t-39 3t-44.5 1q-145 0 -278 -57q-80 -35 -144.5 -99.5t-110.5 -150.5t-70.5 -188.5 t-24.5 -214.5zM426 670q0 106 13.5 185t41.5 140q33 68 84 97.5t140 29.5q59 0 97 -21.5t75 -74.5v-680q-72 -106 -193 -106q-258 0 -258 430z" />
<glyph unicode="&#x153;" horiz-adv-x="1720" d="M66 506q0 -119 34.5 -216t99 -166t154.5 -106.5t201 -37.5q96 0 171 23.5t153 78.5q47 -31 84.5 -51.5t72.5 -31.5t74 -15t90 -4q182 0 299 89t158 259l-273 22q-25 -158 -180 -157q-98 0 -145 64.5t-47 199.5h645q0 72 -3 122t-11.5 90t-21 73.5t-32.5 70.5 q-27 49 -68.5 89t-94 68.5t-112 44t-122.5 15.5q-45 0 -82 -4t-71.5 -16.5t-72.5 -33t-87 -50.5q-78 57 -151 80.5t-165 23.5q-113 0 -205 -37t-156.5 -105.5t-100 -165.5t-35.5 -216zM385 496q0 180 42 259t136 79q92 0 133 -78t41 -258q0 -170 -41 -247t-131 -77 q-92 0 -136 78t-44 244zM1014 631q18 211 186 211q82 0 120 -47t52 -164h-358z" />
<glyph unicode="&#x178;" horiz-adv-x="1069" d="M-55 1366l430 -791v-575h319v575l430 791h-286l-260 -520l-261 520h-372zM248 1628q0 -53 35.5 -90t87.5 -37q51 0 87 38t36 91t-35 89t-88 36q-51 0 -87 -37t-36 -90zM629 1628q0 -53 35.5 -90t89.5 -37q51 0 87 38t36 91t-36 89t-87 36q-53 0 -89 -37t-36 -90z" />
<glyph unicode="&#x2c6;" d="M133 1147h205l170 110l172 -110h211l-383 299z" />
<glyph unicode="&#x2dc;" d="M154 1290l90 -104q45 37 76.5 53t60.5 16t84 -24q53 -23 91 -33t73 -10q68 0 124 31.5t117 103.5l-90 98q-55 -47 -88 -65.5t-65 -18.5q-29 0 -92 27q-53 23 -84 31t-68 8q-63 0 -114.5 -25.5t-114.5 -87.5z" />
<glyph unicode="&#x2000;" horiz-adv-x="923" />
<glyph unicode="&#x2001;" horiz-adv-x="1847" />
<glyph unicode="&#x2002;" horiz-adv-x="923" />
<glyph unicode="&#x2003;" horiz-adv-x="1847" />
<glyph unicode="&#x2004;" horiz-adv-x="615" />
<glyph unicode="&#x2005;" horiz-adv-x="461" />
<glyph unicode="&#x2006;" horiz-adv-x="307" />
<glyph unicode="&#x2007;" horiz-adv-x="307" />
<glyph unicode="&#x2008;" horiz-adv-x="230" />
<glyph unicode="&#x2009;" horiz-adv-x="369" />
<glyph unicode="&#x200a;" horiz-adv-x="102" />
<glyph unicode="&#x2010;" horiz-adv-x="477" d="M0 412h477v217h-477v-217z" />
<glyph unicode="&#x2011;" horiz-adv-x="477" d="M0 412h477v217h-477v-217z" />
<glyph unicode="&#x2012;" horiz-adv-x="477" d="M0 412h477v217h-477v-217z" />
<glyph unicode="&#x2013;" d="M68 573h888v246h-888v-246z" />
<glyph unicode="&#x2014;" horiz-adv-x="1447" d="M0 410h1448v219h-1448v-219z" />
<glyph unicode="&#x2018;" horiz-adv-x="522" d="M117 809h291v285h-140l140 272h-111l-180 -307v-250z" />
<glyph unicode="&#x2019;" horiz-adv-x="522" d="M117 809h110l181 307v250h-291v-287h139z" />
<glyph unicode="&#x201a;" horiz-adv-x="522" d="M117 0h139l-139 -272h110l181 307v250h-291v-285z" />
<glyph unicode="&#x201c;" horiz-adv-x="897" d="M117 807h274v280h-135l135 279h-106l-168 -279v-280zM510 807h272v280h-143l143 279h-106l-166 -279v-280z" />
<glyph unicode="&#x201d;" horiz-adv-x="897" d="M117 807h106l164 276v283h-270v-283h141zM506 807h106l170 276v283h-276v-283h137z" />
<glyph unicode="&#x201e;" horiz-adv-x="897" d="M117 0h141l-141 -276h106l164 276v281h-270v-281zM506 0h137l-137 -276h106l170 276v281h-276v-281z" />
<glyph unicode="&#x2022;" horiz-adv-x="1366" d="M401 696q0 -59 22.5 -111.5t60.5 -91t89.5 -61t110.5 -22.5q57 0 108.5 22.5t89.5 61t60.5 91t22.5 111.5t-22.5 111.5t-60.5 91.5t-89.5 61.5t-108.5 22.5q-59 0 -110.5 -22.5t-89.5 -61.5t-60.5 -91.5t-22.5 -111.5z" />
<glyph unicode="&#x2026;" horiz-adv-x="1624" d="M117 0h309v309h-309v-309zM657 0h310v309h-310v-309zM1198 0h309v309h-309v-309z" />
<glyph unicode="&#x202f;" horiz-adv-x="369" />
<glyph unicode="&#x2039;" horiz-adv-x="421" d="M68 526l170 -286h102l-102 286l102 291h-102z" />
<glyph unicode="&#x203a;" horiz-adv-x="421" d="M82 240h100l170 286l-170 291h-100l100 -291z" />
<glyph unicode="&#x205f;" horiz-adv-x="461" />
<glyph unicode="&#x2122;" horiz-adv-x="1581" d="M10 1200h191v-612h194v612h191v166h-576v-166zM647 588h164v583l176 -583h133l180 583v-583h195v778h-291l-137 -442l-129 442h-291v-778z" />
<glyph unicode="&#xe000;" horiz-adv-x="1013" d="M0 0v1014h1014v-1014h-1014z" />
</font>
</defs>
</svg>
